<?xml version='1.0' encoding='utf-8'?>
<svg xmlns:xlink="http://www.w3.org/1999/xlink" xmlns="http://www.w3.org/2000/svg" width="1920" height="1080" viewBox="0 0 507.99998 285.75001" version="1.1" id="svg8"> <defs id="defs2"> <linearGradient id="linearGradient5650"> <stop style="stop-color:#4a9ef0;stop-opacity:1" offset="0" id="stop5646"/> <stop style="stop-color:#174f9b;stop-opacity:1" offset="1" id="stop5648"/> </linearGradient> <linearGradient id="linearGradient5620"> <stop style="stop-color:#fe5000;stop-opacity:1;" offset="0" id="stop5616"/> <stop style="stop-color:#a6286b;stop-opacity:1" offset="1" id="stop5618"/> </linearGradient> <linearGradient id="linearGradient5571"> <stop style="stop-color:#2772ff;stop-opacity:1" offset="0" id="stop5567"/> <stop style="stop-color:#42e2b0;stop-opacity:1" offset="1" id="stop5569"/> </linearGradient> <linearGradient id="linearGradient5519"> <stop style="stop-color:#fe6600;stop-opacity:1" offset="0" id="stop5515"/> <stop style="stop-color:#585858;stop-opacity:1" offset="1" id="stop5517"/> </linearGradient> <linearGradient id="linearGradient5489"> <stop style="stop-color:#f3a71f;stop-opacity:1" offset="0" id="stop5485"/> <stop style="stop-color:#6ab0e0;stop-opacity:1" offset="0.38031477" id="stop5513"/> <stop style="stop-color:#2cbaad;stop-opacity:1" offset="1" id="stop5487"/> </linearGradient> <linearGradient id="linearGradient-1" y2="100%" x2="50%" y1="-3.93554687%" x1="50%"> <stop id="stop252" offset="0%" stop-color="#FFFFFF"/> <stop id="stop254" offset="100%" stop-color="#F8F8F8"/> </linearGradient> <ellipse ry="78.5857909" rx="78.567889" cy="78.5857909" cx="78.567889" id="path-2"/> <filter id="filter-3" filterUnits="objectBoundingBox" height="139.4%" width="139.5%" y="-12.7%" x="-19.7%"> <feOffset id="feOffset258" result="shadowOffsetOuter1" in="SourceAlpha" dy="11" dx="0"/> <feGaussianBlur id="feGaussianBlur260" result="shadowBlurOuter1" in="shadowOffsetOuter1" stdDeviation="8.5"/> <feComposite id="feComposite262" result="shadowBlurOuter1" operator="out" in2="SourceAlpha" in="shadowBlurOuter1"/> <feColorMatrix id="feColorMatrix264" in="shadowBlurOuter1" type="matrix" values="0 0 0 0 0 0 0 0 0 0 0 0 0 0 0 0 0 0 0.03 0"/> </filter> <linearGradient id="linearGradient-4" y2="100%" x2="50%" y1="0%" x1="50%"> <stop id="stop267" offset="0%" stop-color="#F8F8F8"/> <stop id="stop269" offset="100%" stop-color="#FFFFFF"/> </linearGradient> <ellipse ry="67.3592493" rx="67.3439049" cy="78.3592493" cx="78.3439049" id="path-5"/> <filter id="filter-6" filterUnits="objectBoundingBox" height="103.0%" width="101.5%" y="-0.7%" x="-0.7%"> <feOffset id="feOffset273" result="shadowOffsetOuter1" in="SourceAlpha" dy="2" dx="0"/> <feComposite id="feComposite275" result="shadowOffsetOuter1" operator="out" in2="SourceAlpha" in="shadowOffsetOuter1"/> <feColorMatrix id="feColorMatrix277" in="shadowOffsetOuter1" type="matrix" values="0 0 0 0 1 0 0 0 0 1 0 0 0 0 1 0 0 0 0.180865119 0"/> </filter> <ellipse ry="78.5857909" rx="78.567889" cy="78.5857909" cx="78.567889" id="path-7"/> <filter id="filter-8" filterUnits="objectBoundingBox" height="139.4%" width="139.5%" y="-12.7%" x="-19.7%"> <feOffset id="feOffset281" result="shadowOffsetOuter1" in="SourceAlpha" dy="11" dx="0"/> <feGaussianBlur id="feGaussianBlur283" result="shadowBlurOuter1" in="shadowOffsetOuter1" stdDeviation="8.5"/> <feComposite id="feComposite285" result="shadowBlurOuter1" operator="out" in2="SourceAlpha" in="shadowBlurOuter1"/> <feColorMatrix id="feColorMatrix287" in="shadowBlurOuter1" type="matrix" values="0 0 0 0 0 0 0 0 0 0 0 0 0 0 0 0 0 0 0.03 0"/> </filter> <ellipse ry="67.3592493" rx="67.3439049" cy="78.5857909" cx="78.567889" id="path-9"/> <filter id="filter-10" filterUnits="objectBoundingBox" height="103.0%" width="101.5%" y="-0.7%" x="-0.7%"> <feOffset id="feOffset291" result="shadowOffsetOuter1" in="SourceAlpha" dy="2" dx="0"/> <feComposite id="feComposite293" result="shadowOffsetOuter1" operator="out" in2="SourceAlpha" in="shadowOffsetOuter1"/> <feColorMatrix id="feColorMatrix295" in="shadowOffsetOuter1" type="matrix" values="0 0 0 0 1 0 0 0 0 1 0 0 0 0 1 0 0 0 0.180865119 0"/> </filter> <ellipse ry="78.5857909" rx="78.567889" cy="78.5857909" cx="78.567889" id="path-11"/> <filter id="filter-12" filterUnits="objectBoundingBox" height="139.4%" width="139.5%" y="-12.7%" x="-19.7%"> <feOffset id="feOffset299" result="shadowOffsetOuter1" in="SourceAlpha" dy="11" dx="0"/> <feGaussianBlur id="feGaussianBlur301" result="shadowBlurOuter1" in="shadowOffsetOuter1" stdDeviation="8.5"/> <feComposite id="feComposite303" result="shadowBlurOuter1" operator="out" in2="SourceAlpha" in="shadowBlurOuter1"/> <feColorMatrix id="feColorMatrix305" in="shadowBlurOuter1" type="matrix" values="0 0 0 0 0 0 0 0 0 0 0 0 0 0 0 0 0 0 0.03 0"/> </filter> <ellipse ry="67.3592493" rx="67.3439049" cy="78.6092493" cx="78.5939049" id="path-13"/> <filter id="filter-14" filterUnits="objectBoundingBox" height="103.0%" width="101.5%" y="-0.7%" x="-0.7%"> <feOffset id="feOffset309" result="shadowOffsetOuter1" in="SourceAlpha" dy="2" dx="0"/> <feComposite id="feComposite311" result="shadowOffsetOuter1" operator="out" in2="SourceAlpha" in="shadowOffsetOuter1"/> <feColorMatrix id="feColorMatrix313" in="shadowOffsetOuter1" type="matrix" values="0 0 0 0 1 0 0 0 0 1 0 0 0 0 1 0 0 0 0.180865119 0"/> </filter> <ellipse ry="78.5857909" rx="78.567889" cy="78.5857909" cx="78.567889" id="path-15"/> <filter id="filter-16" filterUnits="objectBoundingBox" height="139.4%" width="139.5%" y="-12.7%" x="-19.7%"> <feOffset id="feOffset317" result="shadowOffsetOuter1" in="SourceAlpha" dy="11" dx="0"/> <feGaussianBlur id="feGaussianBlur319" result="shadowBlurOuter1" in="shadowOffsetOuter1" stdDeviation="8.5"/> <feComposite id="feComposite321" result="shadowBlurOuter1" operator="out" in2="SourceAlpha" in="shadowBlurOuter1"/> <feColorMatrix id="feColorMatrix323" in="shadowBlurOuter1" type="matrix" values="0 0 0 0 0 0 0 0 0 0 0 0 0 0 0 0 0 0 0.03 0"/> </filter> <ellipse ry="67.3592493" rx="67.3439049" cy="78.6092493" cx="78.5939049" id="path-17"/> <filter id="filter-18" filterUnits="objectBoundingBox" height="103.0%" width="101.5%" y="-0.7%" x="-0.7%"> <feOffset id="feOffset327" result="shadowOffsetOuter1" in="SourceAlpha" dy="2" dx="0"/> <feComposite id="feComposite329" result="shadowOffsetOuter1" operator="out" in2="SourceAlpha" in="shadowOffsetOuter1"/> <feColorMatrix id="feColorMatrix331" in="shadowOffsetOuter1" type="matrix" values="0 0 0 0 1 0 0 0 0 1 0 0 0 0 1 0 0 0 0.180865119 0"/> </filter> <ellipse ry="78.5857909" rx="78.567889" cy="78.5857909" cx="78.567889" id="path-19"/> <filter id="filter-20" filterUnits="objectBoundingBox" height="139.4%" width="139.5%" y="-12.7%" x="-19.7%"> <feOffset id="feOffset335" result="shadowOffsetOuter1" in="SourceAlpha" dy="11" dx="0"/> <feGaussianBlur id="feGaussianBlur337" result="shadowBlurOuter1" in="shadowOffsetOuter1" stdDeviation="8.5"/> <feComposite id="feComposite339" result="shadowBlurOuter1" operator="out" in2="SourceAlpha" in="shadowBlurOuter1"/> <feColorMatrix id="feColorMatrix341" in="shadowBlurOuter1" type="matrix" values="0 0 0 0 0 0 0 0 0 0 0 0 0 0 0 0 0 0 0.03 0"/> </filter> <ellipse ry="67.3592493" rx="67.3439049" cy="78.6092493" cx="78.5939049" id="path-21"/> <filter id="filter-22" filterUnits="objectBoundingBox" height="103.0%" width="101.5%" y="-0.7%" x="-0.7%"> <feOffset id="feOffset345" result="shadowOffsetOuter1" in="SourceAlpha" dy="2" dx="0"/> <feComposite id="feComposite347" result="shadowOffsetOuter1" operator="out" in2="SourceAlpha" in="shadowOffsetOuter1"/> <feColorMatrix id="feColorMatrix349" in="shadowOffsetOuter1" type="matrix" values="0 0 0 0 1 0 0 0 0 1 0 0 0 0 1 0 0 0 0.180865119 0"/> </filter> <ellipse ry="67.3592493" rx="67.3439049" cy="67.3592493" cx="67.3439049" id="path-23"/> <filter id="filter-24" filterUnits="objectBoundingBox" height="103.0%" width="101.5%" y="-0.7%" x="-0.7%"> <feOffset id="feOffset353" result="shadowOffsetOuter1" in="SourceAlpha" dy="2" dx="0"/> <feComposite id="feComposite355" result="shadowOffsetOuter1" operator="out" in2="SourceAlpha" in="shadowOffsetOuter1"/> <feColorMatrix id="feColorMatrix357" in="shadowOffsetOuter1" type="matrix" values="0 0 0 0 1 0 0 0 0 1 0 0 0 0 1 0 0 0 0.180865119 0"/> </filter> <ellipse ry="78.5857909" rx="78.567889" cy="78.5857909" cx="78.567889" id="path-25"/> <filter id="filter-26" filterUnits="objectBoundingBox" height="139.4%" width="139.5%" y="-12.7%" x="-19.7%"> <feOffset id="feOffset361" result="shadowOffsetOuter1" in="SourceAlpha" dy="11" dx="0"/> <feGaussianBlur id="feGaussianBlur363" result="shadowBlurOuter1" in="shadowOffsetOuter1" stdDeviation="8.5"/> <feComposite id="feComposite365" result="shadowBlurOuter1" operator="out" in2="SourceAlpha" in="shadowBlurOuter1"/> <feColorMatrix id="feColorMatrix367" in="shadowBlurOuter1" type="matrix" values="0 0 0 0 0 0 0 0 0 0 0 0 0 0 0 0 0 0 0.03 0"/> </filter> <ellipse ry="67.3592493" rx="67.3439049" cy="78.6092493" cx="78.5939049" id="path-27"/> <filter id="filter-28" filterUnits="objectBoundingBox" height="103.0%" width="101.5%" y="-0.7%" x="-0.7%"> <feOffset id="feOffset371" result="shadowOffsetOuter1" in="SourceAlpha" dy="2" dx="0"/> <feComposite id="feComposite373" result="shadowOffsetOuter1" operator="out" in2="SourceAlpha" in="shadowOffsetOuter1"/> <feColorMatrix id="feColorMatrix375" in="shadowOffsetOuter1" type="matrix" values="0 0 0 0 1 0 0 0 0 1 0 0 0 0 1 0 0 0 0.180865119 0"/> </filter> <linearGradient id="linearGradient-29" y2="187.828776%" x2="50%" y1="0%" x1="50%"> <stop id="stop378" offset="0%" stop-color="#EEEEEE"/> <stop id="stop380" offset="100%" stop-color="#FFFFFF"/> </linearGradient> <ellipse ry="67.3592493" rx="67.3439049" cy="194.780496" cx="80.2514866" id="path-30"/> <filter id="filter-31" filterUnits="objectBoundingBox" height="103.0%" width="101.5%" y="-0.7%" x="-0.7%"> <feOffset id="feOffset384" result="shadowOffsetOuter1" in="SourceAlpha" dy="2" dx="0"/> <feComposite id="feComposite386" result="shadowOffsetOuter1" operator="out" in2="SourceAlpha" in="shadowOffsetOuter1"/> <feColorMatrix id="feColorMatrix388" in="shadowOffsetOuter1" type="matrix" values="0 0 0 0 1 0 0 0 0 1 0 0 0 0 1 0 0 0 0.180865119 0"/> </filter> <ellipse ry="78.5857909" rx="78.567889" cy="78.5857909" cx="78.567889" id="path-32"/> <filter id="filter-33" filterUnits="objectBoundingBox" height="139.4%" width="139.5%" y="-12.7%" x="-19.7%"> <feOffset id="feOffset392" result="shadowOffsetOuter1" in="SourceAlpha" dy="11" dx="0"/> <feGaussianBlur id="feGaussianBlur394" result="shadowBlurOuter1" in="shadowOffsetOuter1" stdDeviation="8.5"/> <feComposite id="feComposite396" result="shadowBlurOuter1" operator="out" in2="SourceAlpha" in="shadowBlurOuter1"/> <feColorMatrix id="feColorMatrix398" in="shadowBlurOuter1" type="matrix" values="0 0 0 0 0 0 0 0 0 0 0 0 0 0 0 0 0 0 0.03 0"/> </filter> <ellipse ry="67.3592493" rx="67.3439049" cy="78.6092493" cx="78.5939049" id="path-34"/> <filter id="filter-35" filterUnits="objectBoundingBox" height="103.0%" width="101.5%" y="-0.7%" x="-0.7%"> <feOffset id="feOffset402" result="shadowOffsetOuter1" in="SourceAlpha" dy="2" dx="0"/> <feComposite id="feComposite404" result="shadowOffsetOuter1" operator="out" in2="SourceAlpha" in="shadowOffsetOuter1"/> <feColorMatrix id="feColorMatrix406" in="shadowOffsetOuter1" type="matrix" values="0 0 0 0 1 0 0 0 0 1 0 0 0 0 1 0 0 0 0.180865119 0"/> </filter> <linearGradient id="linearGradient-36" y2="-34.8675272%" x2="146.055948%" y1="100%" x1="0%"> <stop id="stop409" offset="0%" stop-color="#00FFC8"/> <stop id="stop411" offset="100%" stop-color="#0072FF"/> </linearGradient> <linearGradient id="linearGradient-37" y2="-34.8675272%" x2="146.055948%" y1="118.098958%" x1="-18.0338542%"> <stop id="stop414" offset="0%" stop-color="#00FFC8"/> <stop id="stop416" offset="100%" stop-color="#0072FF"/> </linearGradient> <linearGradient id="linearGradient-38" y2="-34.8675272%" x2="146.055948%" y1="93.5026042%" x1="6.02539062%"> <stop id="stop419" offset="0%" stop-color="#00FFC8"/> <stop id="stop421" offset="100%" stop-color="#0072FF"/> </linearGradient> <linearGradient id="linearGradient-39" y2="100%" x2="0%" y1="0%" x1="100%"> <stop id="stop424" offset="0%" stop-color="#0000FF"/> <stop id="stop426" offset="100%" stop-color="#FF00FF"/> </linearGradient> <linearGradient id="linearGradient-40" y2="0%" x2="100%" y1="107.574219%" x1="-14.2682292%"> <stop id="stop429" offset="0%" stop-color="#02FDFF"/> <stop id="stop431" offset="100%" stop-color="#FF02FF"/> </linearGradient> <linearGradient id="linearGradient-41" y2="0%" x2="100%" y1="125.33701%" x1="-32.7267157%"> <stop id="stop434" offset="0%" stop-color="#6F00FF"/> <stop id="stop436" offset="100%" stop-color="#FF0064"/> </linearGradient> <linearGradient id="linearGradient-42" y2="0%" x2="121.282051%" y1="144.214744%" x1="-47.0192308%"> <stop id="stop439" offset="0%" stop-color="#6F00FF"/> <stop id="stop441" offset="100%" stop-color="#FF0064"/> </linearGradient> <linearGradient id="linearGradient-43" y2="17.5694451%" x2="100%" y1="171.19213%" x1="-63.0787037%"> <stop id="stop444" offset="0%" stop-color="#6F00FF"/> <stop id="stop446" offset="100%" stop-color="#F8006C"/> <stop id="stop448" offset="100%" stop-color="#FF0064"/> </linearGradient> <linearGradient id="linearGradient-44" y2="100%" x2="-5.82682292%" y1="-36.3167458%" x1="135.700577%"> <stop id="stop451" offset="0%" stop-color="#00FFFF"/> <stop id="stop453" offset="100%" stop-color="#0000FF"/> </linearGradient> <linearGradient id="linearGradient-45" y2="7.14192708%" x2="100%" y1="141.606658%" x1="-41.0869565%"> <stop id="stop456" offset="0%" stop-color="#FFFF00"/> <stop id="stop458" offset="100%" stop-color="#FF00FF"/> </linearGradient> <linearGradient xlink:href="#linearGradient5489" id="linearGradient5491" x1="1058.9648" y1="244.54366" x2="1087.9553" y2="353.30753" gradientUnits="userSpaceOnUse" gradientTransform="matrix(0.49588298,0,0,0.49588294,-484.36911,94.054562)"/> <linearGradient xlink:href="#linearGradient5519" id="linearGradient5521" x1="410.86591" y1="-11.352061" x2="410.86591" y2="106.41624" gradientUnits="userSpaceOnUse" gradientTransform="matrix(0.41773517,0,0,0.41773518,207.04878,32.720098)"/> <linearGradient xlink:href="#linearGradient5571" id="linearGradient5573" x1="1047.4781" y1="-108.12746" x2="1047.4781" y2="-50.347786" gradientUnits="userSpaceOnUse" gradientTransform="matrix(0.49588292,0,0,0.49588294,-308.22653,184.06824)"/> <linearGradient xlink:href="#linearGradient5620" id="linearGradient5622" x1="804.10859" y1="298.01205" x2="925.65155" y2="298.01205" gradientUnits="userSpaceOnUse" gradientTransform="matrix(0.49588292,0,0,0.49588294,-50.860945,1.3612017)"/> <linearGradient xlink:href="#linearGradient5650" id="linearGradient5652" x1="878.25611" y1="487.41327" x2="999.79907" y2="487.41327" gradientUnits="userSpaceOnUse" gradientTransform="matrix(0.49588292,0,0,0.49588294,-336.94102,-0.94797138)"/> </defs> <metadata id="metadata5"> </metadata> <g id="layer1" transform="translate(0,-11.250002)"> <circle style="opacity:1;fill:#d99730;fill-opacity:1;stroke:none;stroke-width:0.06719353;stroke-miterlimit:4;stroke-dasharray:none;stroke-opacity:1" id="path1812" cx="45.602856" cy="149.14029" r="30.13554"/> <path style="fill:#ffffff;fill-opacity:1;stroke:none;stroke-width:0.08182069;stroke-linecap:butt;stroke-linejoin:miter;stroke-miterlimit:4;stroke-dasharray:none;stroke-opacity:1" d="m 42.274922,129.35958 v 5.43261 l -7.181525,-0.032 0.0064,7.15911 11.441769,0.003 -12.365882,16.74943 -0.0035,5.0226 8.011326,0.006 -0.01279,5.24041 6.662614,-0.12172 v -5.2276 h 8.200148 l -0.08723,-7.17574 -12.507685,0.0647 12.166572,-16.23299 -0.07249,-5.50846 h -7.79157 l 0.03625,-5.39974 z" id="path1005"/> <circle r="30.13554" cy="149.14029" cx="378.01831" id="circle1814" style="opacity:1;fill:url(#linearGradient5622);fill-opacity:1;stroke:none;stroke-width:0.06719353;stroke-miterlimit:4;stroke-dasharray:none;stroke-opacity:1"/> <g id="g1354" transform="matrix(0.49588292,0,0,0.49588294,-50.86085,-2.1238613)"> <path id="polygon980" d="m 850.88501,316.75794 -21.86998,12.63747 h 71.98061 l -21.94232,-12.63747 z" style="fill:#eae8e8;fill-opacity:1;stroke-width:0.56977987"/> <path id="polygon982" d="m 865.06501,266.6287 -0.007,25.36744 14.67199,24.63571 21.42453,12.26798 z" style="fill:#ffffff;fill-opacity:1;stroke-width:0.56977987"/> <path id="polygon984" d="m 864.8485,266.79975 -36.24328,62.18587 22.08082,-12.5734 14.10716,-24.22694 z" style="fill:#d4cece;fill-opacity:1;stroke-width:0.56977987"/> </g> <g id="g1718"/> <circle style="opacity:1;fill:#0078bd;fill-opacity:1;stroke:none;stroke-width:0.06719353;stroke-miterlimit:4;stroke-dasharray:none;stroke-opacity:1" id="circle2027" cx="294.91446" cy="149.14029" r="30.13554"/> <g id="g1729" transform="translate(-12.386287,6.1331946e-6)"> <path style="fill:#ffffff;fill-opacity:1;stroke:none;stroke-width:0.24470608px;stroke-linecap:butt;stroke-linejoin:miter;stroke-opacity:1" d="m 294.79333,135.67844 -2.255,6.59558 27.51578,-0.0743 -4.03692,13.63583 -27.81618,-0.19118 -2.17465,6.50001 c 0,0 25.99729,0.16897 31.43837,0 7.65334,-2.51484 7.92677,-6.96527 9.75577,-12.53179 1.42911,-4.31841 3.23936,-9.63831 1.93015,-11.98647 -0.71758,-1.14313 -1.71021,-1.83933 -3.04887,-1.86411 -9.94496,-0.18414 -31.30845,-0.0836 -31.30845,-0.0836 z" id="path1988"/> <path id="path1990" d="m 287.24512,145.96613 -2.24633,5.92648 h 16.35087 l 2.00209,-5.93843 z" style="fill:#ffffff;fill-opacity:1;stroke:none;stroke-width:0.24470608px;stroke-linecap:butt;stroke-linejoin:miter;stroke-opacity:1"/> </g> <circle style="opacity:1;fill:url(#linearGradient5573);fill-opacity:1;stroke:none;stroke-width:0.06719353;stroke-miterlimit:4;stroke-dasharray:none;stroke-opacity:1" id="circle1816-5" cx="211.81059" cy="149.14029" r="30.13554"/> <path style="fill:#ffffff;fill-opacity:1;stroke:none;stroke-width:0.46271846px;stroke-linecap:butt;stroke-linejoin:miter;stroke-opacity:1" d="m 199.15393,131.59385 15.18304,13.37542 c -8.05259,0.0796 -17.30353,-1.33788 -18.4882,7.77225 1.0544,6.86249 6.34046,6.71001 11.36564,6.71001 l 7.34903,7.18926 h -14.50641 c -0.0647,0.57708 -10.14338,-4.26031 -11.09736,-13.24471 -0.7711,-7.26118 8.0031,-14.92868 8.89277,-14.01057 l -8.43547,-7.66858 z" id="path2029"/> <path id="path2031" d="m 224.46707,166.68675 -15.1829,-13.37542 c 8.05245,-0.0796 17.30339,1.33788 18.48806,-7.77225 -1.0544,-6.8625 -6.34031,-6.71002 -11.36549,-6.71002 l -7.34903,-7.18925 h 14.50626 c 0.0647,-0.57709 10.14333,4.2603 11.09751,13.24471 0.7711,7.26118 -8.00325,14.92868 -8.89277,14.01056 l 8.43547,7.66858 z" style="fill:#d8d8d8;fill-opacity:1;stroke:none;stroke-width:0.46271846px;stroke-linecap:butt;stroke-linejoin:miter;stroke-opacity:1"/> <circle r="30.13554" cy="63.531326" cx="211.81059" id="circle2149" style="opacity:1;fill:#28a27d;fill-opacity:1;stroke:none;stroke-width:0.06719353;stroke-miterlimit:4;stroke-dasharray:none;stroke-opacity:1"/> <path style="opacity:1;fill:#ffffff;fill-opacity:1;stroke:none;stroke-width:1.03945374;stroke-miterlimit:4;stroke-dasharray:none;stroke-opacity:1" d="m 211.96146,57.494074 c -6.99307,-0.01166 -20.42692,0.748849 -20.42676,4.778674 0,2.973234 13.44509,4.641679 20.42676,4.630664 6.88392,-0.01156 20.12501,-0.874087 20.12501,-4.630664 1.1e-4,-4.325408 -13.22957,-4.767659 -20.12501,-4.778674 z m -3.79475,1.388922 c -0.27207,1.022038 0.67238,4.703028 0.67238,6.366814 0,0 -14.88132,0.280118 -14.97054,-2.962841 0,-3.276802 14.29816,-3.403973 14.29816,-3.403973 z m 7.31379,0 c 0,0 14.32339,0.150193 14.32339,3.446668 -0.0887,3.262609 -14.61832,2.920146 -14.61832,2.920146 0,-1.673942 0.56702,-5.338596 0.29466,-6.366814 z" id="path2502"/> <path style="fill:#ffffff;fill-opacity:1;stroke:none;stroke-width:1.45722413px;stroke-linecap:butt;stroke-linejoin:miter;stroke-opacity:1" d="m 195.91127,44.613482 v 8.85515 h 11.27019 l 0.40261,29.181569 9.25759,-0.201026 -0.80499,-29.382874 h 11.87393 l -0.40261,-8.653847 z" id="path2496"/> <circle style="opacity:1;fill:#e1c257;fill-opacity:1;stroke:none;stroke-width:0.06719353;stroke-miterlimit:4;stroke-dasharray:none;stroke-opacity:1" id="circle1816-2" cx="128.70673" cy="149.14029" r="30.13554"/> <path style="fill:#ffffff;fill-opacity:1;stroke:none;stroke-width:0.21828325px;stroke-linecap:butt;stroke-linejoin:miter;stroke-opacity:1" d="m 110.83011,131.20633 v 8.49727 l 4.76555,-0.0853 -0.0213,18.88662 h -4.71102 v 8.56932 h 22.57659 c 0,0 13.14343,-0.58852 13.14343,-19.51332 0,-12.8072 -13.14343,-16.35462 -13.14343,-16.35462 z m 17.59052,8.30584 c 1.3014,-0.0103 2.30997,0.11576 3.01681,0.5568 2.0047,1.25089 3.20474,4.23575 3.50192,8.03427 -0.0407,2.23784 0.21665,9.53552 -6.21257,10.36888 h -2.963 v -18.83247 c 0.98983,-0.0661 1.87608,-0.12129 2.65684,-0.12748 z" id="path2541"/> <circle style="opacity:1;fill:#7c7c7c;fill-opacity:1;stroke:none;stroke-width:0.06719353;stroke-miterlimit:4;stroke-dasharray:none;stroke-opacity:1" id="circle2151" cx="128.70673" cy="63.531326" r="30.13554"/> <path style="fill:#c8c8c8;fill-opacity:1;stroke:none;stroke-width:0.18677372px;stroke-linecap:butt;stroke-linejoin:miter;stroke-opacity:1" d="m 128.76094,39.901904 -14.50049,24.14925 14.44751,8.570057 14.44505,-8.641226 z" id="path2529"/> <path style="fill:#c8c8c8;fill-opacity:1;stroke:none;stroke-width:0.18677372px;stroke-linecap:butt;stroke-linejoin:miter;stroke-opacity:1" d="m 114.46108,66.860058 14.31811,20.300698 14.24484,-20.36915 -14.3178,8.47692 z" id="path2531"/> <path style="fill:#ffffff;fill-opacity:1;stroke:none;stroke-width:0.18677372px;stroke-linecap:butt;stroke-linejoin:miter;stroke-opacity:1" d="m 128.70623,75.268526 0.073,11.89223 -14.31811,-20.300698 z" id="path2533"/> <path style="fill:#ffffff;fill-opacity:1;stroke:none;stroke-width:0.18677372px;stroke-linecap:butt;stroke-linejoin:miter;stroke-opacity:1" d="m 128.70796,57.428127 -14.44751,6.623027 14.50049,-24.14925 z" id="path2535"/> <path style="fill:#e6e6e6;fill-opacity:1;stroke:none;stroke-width:0.18677372px;stroke-linecap:butt;stroke-linejoin:miter;stroke-opacity:1" d="M 128.70796,57.428127 V 72.621211 L 114.26045,64.051154 Z" id="path2537"/> <path style="fill:#e6e6e6;fill-opacity:1;stroke:none;stroke-width:0.18677372px;stroke-linecap:butt;stroke-linejoin:miter;stroke-opacity:1" d="m 128.70796,57.428127 14.44505,6.551858 -14.39207,-24.078081 z" id="path2539"/> <circle r="30.13554" cy="63.531326" cx="378.01831" id="circle2609" style="opacity:1;fill:url(#linearGradient5521);fill-opacity:1;stroke:none;stroke-width:0.06719352;stroke-miterlimit:4;stroke-dasharray:none;stroke-opacity:1"/> <path style="fill:#ffffff;fill-opacity:1;stroke:none;stroke-width:0.3812044px;stroke-linecap:butt;stroke-linejoin:miter;stroke-opacity:1" d="m 394.05874,50.49892 -16.17013,16.170131 -16.00499,-16.004382 -0.1579,20.584984 -12.83111,-0.04098 a 30.135538,30.135538 0 0 0 2.08176,5.578689 l 16.32985,0.04279 -0.27845,-13.882842 10.94643,10.945834 10.80359,-10.804195 v 13.632116 h 16.29428 a 30.135538,30.135538 0 0 0 2.00222,-5.326761 h -12.90464 z" id="path2607-6"/> <ellipse cy="63.531326" cx="461.12213" id="circle1067" style="opacity:1;fill:#27afe6;fill-opacity:1;stroke:none;stroke-width:0.06719353;stroke-miterlimit:4;stroke-dasharray:none;stroke-opacity:1" rx="30.135538" ry="30.13554"/> <path style="opacity:1;fill:#ffffff;fill-opacity:1;stroke:none;stroke-width:1.07692587;stroke-miterlimit:4;stroke-dasharray:none;stroke-opacity:1" d="m 468.73901,41.875566 c -5.12178,-2.68e-4 -9.27639,4.150917 -9.27578,9.272703 3.6e-4,3.04696 0.97227,3.311028 1.42782,4.975116 0.26552,0.969984 0.81078,1.915087 0.7608,2.919524 -0.0369,0.744158 -0.20106,1.632019 -0.77555,2.096372 -0.55965,0.452325 -1.50234,0.534587 -2.2823,0.5187 -0.76128,-0.01544 -2.14574,-0.407062 -2.205,-0.59649 -1.25725,-4.019165 -4.52281,-7.182319 -8.73402,-7.185068 -5.12299,-2.71e-4 -9.27607,4.152795 -9.27578,9.27576 -2.9e-4,5.12297 4.15279,9.276024 9.27578,9.275752 3.76174,-0.0024 7.00865,-2.338741 8.5754,-5.758728 0.0666,-0.145592 1.75719,-1.215507 2.77231,-1.271391 0.75398,-0.04156 1.71114,0.09834 2.15039,0.712628 0.94569,1.322387 0.23678,3.40721 -0.0447,4.877033 -0.32786,1.711751 -1.42422,3.18097 -1.42823,4.923833 -2.4e-4,5.122982 4.15283,9.276036 9.27579,9.275772 5.12295,2.64e-4 9.27603,-4.15279 9.27574,-9.275772 2.9e-4,-5.12297 -4.15279,-9.276012 -9.27574,-9.27574 -0.9574,0.02136 -1.85253,-0.394184 -2.47108,-0.920513 -0.89745,-0.763649 -1.48094,-1.045955 -1.59367,-1.745445 -0.092,-0.57045 -0.1257,-1.769107 0.39605,-2.382027 0.78698,-0.924526 2.24938,-1.163872 3.45154,-1.163454 5.123,0.0024 9.27603,-4.152791 9.27579,-9.275772 0,-5.121782 -4.15401,-9.27296 -9.27579,-9.272692 z" id="path2599"/> <circle r="30.13554" cy="63.531326" cx="45.602859" id="circle2763" style="opacity:1;fill:#f58f1a;fill-opacity:1;stroke:none;stroke-width:0.06719353;stroke-miterlimit:4;stroke-dasharray:none;stroke-opacity:1"/> <path style="fill:#ffffff;fill-opacity:1;stroke:none;stroke-width:0.2499301px;stroke-linecap:butt;stroke-linejoin:miter;stroke-opacity:1" d="m 35.350116,48.816366 c 0,0 -7.685576,5.14573 -7.685576,14.418834 0,9.822749 7.964993,15.011092 7.964993,15.011092 L 21.867798,78.245658 V 48.883746 Z" id="path2663"/> <path id="path2665" d="m 55.855619,48.816366 c 0,0 7.685575,5.14573 7.685575,14.418834 0,9.822749 -7.964992,15.011092 -7.964992,15.011092 l 13.761734,-7.61e-4 V 48.883746 Z" style="fill:#ffffff;fill-opacity:1;stroke:none;stroke-width:0.2499301px;stroke-linecap:butt;stroke-linejoin:miter;stroke-opacity:1"/> <g id="g2700" transform="matrix(0.94461771,0,0,0.94461771,-207.02839,-90.53298)" style="opacity:1"> <path id="path10-4" transform="matrix(0.13889467,0,0,0.13889467,-438.90619,205.9785)" d="m 5085.3164,-420.86328 c -9.9154,0.0248 -19.9928,1.40477 -29.9961,4.27344 -58.1889,16.68365 -91.8387,77.39736 -75.1406,135.59765 16.6811,58.19828 77.3952,91.85395 135.5781,75.17383 58.2055,-16.68926 91.8568,-77.39981 75.168,-135.59766 -13.8218,-48.19753 -57.8351,-79.56666 -105.6094,-79.44726 z m -6.0586,40.47656 5.6152,19.58203 c 15.7721,-3.06383 29.3156,-1.82539 34.7208,11.90235 v 0.002 c 3.9725,10.04013 1.4307,17.47809 -4.4707,22.97851 12.1581,-0.53018 21.2234,4.18883 24.1621,19.74415 3.6542,19.31679 -8.9222,28.38559 -28.6309,35.28125 l 5.6641,19.77148 -11.918,3.41797 -5.5879,-19.50586 c -3.0877,0.88851 -6.2584,1.7688 -9.5469,2.63867 l 5.6192,19.5957 -11.9082,3.41211 -5.6836,-19.80273 c -2.7934,0.78174 -5.6477,1.54687 -8.5352,2.37109 l -15.5097,4.44922 -1.7149,-14.91406 c 0,0 8.8575,-2.39099 8.666,-2.48242 3.3676,-0.97304 3.5696,-3.65223 3.3457,-5.23242 l -8.957,-31.25 c 0.436,-0.12888 0.8611,-0.24881 1.2578,-0.36329 -0.5114,0.0734 -0.9491,0.18375 -1.2832,0.27735 l -6.3984,-22.30664 c -1.1506,-2.28756 -3.5254,-4.63885 -8.3535,-3.25586 0.1,-0.20411 -8.6543,2.48633 -8.6543,2.48633 l -3.6524,-12.72852 16.4414,-4.70898 0.014,0.0586 c 2.4706,-0.71018 4.9912,-1.48466 7.5566,-2.27734 l -5.6093,-19.57813 11.9121,-3.41406 5.5019,19.1914 c 3.1639,-0.97591 6.3492,-1.95665 9.4824,-2.85546 l -5.4668,-19.06446 z m 7.4219,35.13477 c -7.1232,-0.0214 -15.272,3.04725 -19.0567,4.13281 l 6.8223,23.79883 c 6.7283,-1.92988 28.3144,-6.41866 24.457,-19.88477 -1.7624,-6.14413 -6.6824,-8.03023 -12.2226,-8.04687 z m 14.0351,34.88086 c -8.486,0.15589 -18.2787,3.75828 -22.8242,5.06054 l 7.5215,26.24024 c 8.0758,-2.32399 33.8989,-7.90703 29.6484,-22.70508 -1.9361,-6.7537 -7.7454,-8.71695 -14.3457,-8.5957 z" style="fill:#ffffff;fill-opacity:1;stroke-width:3.42677236"/> </g> <ellipse cy="149.14029" cx="461.12213" id="circle2784" style="opacity:1;fill:#22bde1;fill-opacity:1;stroke:none;stroke-width:1.0155015;stroke-miterlimit:4;stroke-dasharray:none;stroke-opacity:1" rx="30.135538" ry="30.13554"/> <ellipse style="opacity:1;fill:#00d900;fill-opacity:1;stroke:none;stroke-width:0.8695063;stroke-miterlimit:4;stroke-dasharray:none;stroke-opacity:1" id="path2782" cx="461.22348" cy="149.24159" rx="25.803053" ry="25.803055"/> <ellipse cy="149.20241" cx="461.18427" id="circle2786" style="opacity:1;fill:#091c29;fill-opacity:1;stroke:none;stroke-width:0.93947679;stroke-miterlimit:4;stroke-dasharray:none;stroke-opacity:1" rx="27.879465" ry="27.879467"/> <path style="opacity:1;fill:#fafafa;fill-opacity:1;stroke:none;stroke-width:0.80235666px;stroke-linecap:butt;stroke-linejoin:miter;stroke-opacity:1" d="m 447.81686,141.28533 5.1527,4.65405 -10.41622,5.15272 8.03544,6.51937 -13.38922,17.77318 37.76718,-17.23814 -6.2653,-4.30871 11.20164,-6.03416 -7.52206,-5.79829 14.68584,-18.81859 c 0,0 -26.27538,12.05696 -39.25,18.09857 z" id="path2780"/> <path id="path10" d="m 324.14799,70.821489 c -4.02539,16.14401 -20.3785,25.969033 -36.52625,21.943159 -16.14126,-4.024936 -25.96738,-20.377073 -21.94011,-36.520135 4.02351,-16.145894 20.37662,-25.971866 36.51973,-21.946929 16.14679,4.024936 25.97201,20.378957 21.94663,36.523905 z" style="fill:#f8a23b;fill-opacity:1;stroke-width:0.94178116"/> <path id="path12" d="m 308.19798,59.238255 c 0.59998,-4.009861 -2.45352,-6.16548 -6.62867,-7.603491 l 1.35436,-5.431879 -3.30674,-0.824006 -1.31862,5.28873 c -0.86932,-0.216597 -1.76213,-0.420952 -2.64932,-0.623423 l 1.32793,-5.323576 -3.30486,-0.824007 -1.35527,5.429985 c -0.71964,-0.163851 -1.42594,-0.325828 -2.11162,-0.496283 v -0.01698 l -4.5604,-1.138551 -0.87968,3.531477 c 0,0 2.45352,0.562208 2.40169,0.597053 1.33926,0.334309 1.58136,1.220476 1.54087,1.923002 l -1.54275,6.188087 c 0.0918,0.02359 0.21187,0.05745 0.34379,0.110179 -0.11019,-0.02735 -0.22797,-0.05745 -0.34942,-0.08667 l -2.16246,8.668584 c -0.16389,0.406826 -0.57924,1.017058 -1.51539,0.785399 0.0326,0.04807 -2.40358,-0.599879 -2.40358,-0.599879 l -1.64165,3.784797 4.30322,1.072626 c 0.80058,0.200583 1.58518,0.410585 2.35745,0.608358 l -1.3685,5.494022 3.30299,0.824016 1.35535,-5.43564 c 0.90231,0.244838 1.77821,0.470852 2.63529,0.683689 l -1.35061,5.410209 3.30672,0.824018 1.3685,-5.483677 c 5.63883,1.066979 9.87893,0.63661 11.66378,-4.462839 1.43818,-4.105923 -0.0711,-6.474368 -3.03841,-8.018795 2.1606,-0.498169 3.78805,-1.919241 4.22227,-4.8546 z m -7.55545,10.593481 c -1.02184,4.105923 -7.93584,1.886276 -10.17741,1.329717 l 1.81584,-7.278601 c 2.24155,0.559385 9.42963,1.666857 8.36157,5.948884 z m 1.02283,-10.652809 c -0.93239,3.734893 -6.68702,1.837313 -8.5537,1.372096 l 1.64631,-6.601498 c 1.86677,0.465216 7.8785,1.333489 6.90739,5.229402 z" style="fill:#ffffff;fill-opacity:1;stroke-width:0.94178116"/> <circle style="opacity:1;fill:url(#linearGradient5652);fill-opacity:1;stroke:none;stroke-width:0.06719353;stroke-miterlimit:4;stroke-dasharray:none;stroke-opacity:1" id="circle1816" cx="128.70673" cy="240.75195" r="30.13554"/> <path id="Shape" d="m 116.9953,228.08187 c -1.42419,1.18695 -2.88587,2.65428 -3.48552,4.43936 -0.68399,2.10286 0.27172,4.25244 1.18995,6.131 0.91822,1.92528 1.93015,3.79448 2.80153,5.7665 0.68398,1.55143 1.64906,3.38326 1.42419,5.12162 -0.18739,1.23367 -0.59966,2.42062 -0.82453,3.66364 -0.1874,0.82245 0.59966,0 0.87138,-0.22431 1.60221,-1.37386 3.34497,-2.9253 3.99148,-5.02816 0.31857,-1.0561 0.14055,-2.00939 -0.22487,-3.01876 -0.36542,-0.96264 -0.77768,-1.87856 -1.18995,-2.83185 -0.87138,-1.92528 -1.78961,-3.84121 -2.70784,-5.7665 -0.36541,-0.68226 -0.73083,-1.4206 -1.05877,-2.14958 -0.31857,-0.77572 -0.50596,-1.59817 -0.55281,-2.46735 -0.0469,-0.68226 -0.0469,-1.32714 0.0469,-2.0094 0.0469,-0.50468 0.18739,-0.96264 0.22487,-1.46733 0.0469,-0.29907 -0.17803,-0.39253 -0.50596,-0.15888 m 21.00682,0 c -1.42419,1.18695 -2.88586,2.65428 -3.48552,4.43936 -0.68399,2.10286 0.27172,4.25244 1.18995,6.131 0.91822,1.92528 1.93015,3.79448 2.80153,5.7665 0.68399,1.55143 1.64907,3.38326 1.42419,5.12162 -0.18739,1.23367 -0.59966,2.42062 -0.82453,3.66364 -0.1874,0.82245 0.59966,0 0.87138,-0.22431 1.60222,-1.37386 3.34498,-2.9253 3.99148,-5.02816 0.31857,-1.0561 0.14055,-2.00939 -0.22487,-3.01876 -0.36541,-0.96264 -0.77768,-1.87856 -1.18995,-2.83185 -0.87138,-1.92528 -1.78961,-3.84121 -2.70784,-5.7665 -0.36541,-0.68226 -0.73083,-1.4206 -1.05877,-2.14958 -0.31857,-0.77572 -0.50596,-1.59817 -0.55281,-2.46735 -0.0469,-0.68226 -0.0469,-1.32714 0.0469,-2.0094 0.0469,-0.50468 0.18739,-0.96264 0.22487,-1.46733 0.0375,-0.29907 -0.18739,-0.39253 -0.50596,-0.15888" style="fill:#e5e5e5;fill-opacity:1;fill-rule:nonzero;stroke:none;stroke-width:0.43042636;stroke-miterlimit:4;stroke-dasharray:none;stroke-opacity:1"/> <path id="path478" d="m 127.18014,224.60515 c -1.60222,1.32713 -3.34498,2.92531 -4.31005,4.80386 -0.68399,1.32714 -0.77769,2.701 -0.41227,4.07487 0.45911,1.6449 1.09625,3.28979 1.78961,4.89731 1.33049,3.0655 3.07325,5.94407 4.3569,9.0563 0.45911,1.09348 0.96508,2.33651 1.05877,3.57018 0.0937,1.50471 -0.41226,3.11223 -0.82453,4.52348 -0.0937,0.41122 -0.36542,0.96264 -0.31857,1.37386 0.0469,0.31777 0.22487,0.18693 0.41227,0.0467 0.77768,-0.59815 1.55536,-1.28041 2.24872,-1.96267 1.8833,-1.78509 4.03833,-4.15898 3.85094,-6.95344 -0.0937,-1.14022 -0.63714,-2.24305 -1.09626,-3.28981 -0.50595,-1.23367 -1.05876,-2.42061 -1.60221,-3.61691 -1.01193,-2.24304 -2.06133,-4.43936 -3.16695,-6.63567 -0.36542,-0.77572 -0.82453,-1.50472 -1.09625,-2.28978 -0.41227,-1.0561 -0.59966,-2.14959 -0.64651,-3.24307 -0.0469,-0.82245 0,-1.69163 0.0937,-2.51408 0.0469,-0.55142 0.22487,-1.05611 0.22487,-1.59817 0.1218,-0.52338 -0.14992,-0.56076 -0.56218,-0.243" style="fill:#f7f7f7;fill-opacity:1;fill-rule:nonzero;stroke:none;stroke-width:0.43051338"/> <circle cx="45.602859" cy="240.75195" id="circle1814-0" style="opacity:1;fill:url(#linearGradient5491);fill-opacity:1;stroke:none;stroke-width:0.06719354;stroke-miterlimit:4;stroke-dasharray:none;stroke-opacity:1" r="30.13554"/> <path id="path132" d="m 45.615306,258.95572 c 0.07448,-0.0497 0.173807,-0.0993 0.248289,-0.14897 2.408454,-1.41529 4.643151,-3.10371 6.654353,-5.04043 0.124119,-0.12414 0.223445,-0.27312 0.32277,-0.4221 0.124119,-0.2483 0.273132,-0.52142 0.397252,-0.76972 0.96836,-2.0112 1.167011,-4.07206 0.521421,-6.20741 -1.241443,-4.14655 -5.239053,-6.5302 -9.236614,-6.00878 -1.142167,0.14898 -2.209853,0.4966 -3.203007,1.06768 -1.911877,1.06767 -3.947923,1.51461 -6.108089,1.31597 -1.067685,-0.0993 -2.085733,-0.37244 -3.078888,-0.79454 -0.769709,-0.34762 -1.489781,-0.76972 -2.160215,-1.29115 -0.04964,-0.0497 -0.09927,-0.0745 -0.198601,-0.12415 0.02479,0.0993 0.04964,0.14898 0.07448,0.19864 0.844191,2.18501 1.911877,4.24587 3.178213,6.23224 1.365612,2.13535 2.929875,4.09689 4.692789,5.90946 1.762913,1.81256 3.699634,3.40166 5.810112,4.81695 0.918722,0.59591 1.812601,1.14216 2.085733,1.26631" class="st0" style="fill:#ebebec;fill-opacity:1;stroke-width:0.24829651"/> <path id="path134" d="m 55.646473,250.38949 c 0.09933,-0.0497 0.148964,-0.12414 0.198602,-0.19864 0.769759,-0.96835 1.489781,-1.96154 2.160215,-2.97955 2.408454,-3.72445 4.072042,-7.74685 5.015558,-12.06721 0.32282,-1.46495 0.546265,-2.95473 0.670434,-4.44451 0.09933,-1.01801 0.148963,-2.03603 0.148963,-3.05404 0,-0.0745 0,-0.14898 -0.02479,-0.19864 -0.09933,-0.0497 -0.198601,-0.12415 -0.273132,-0.17381 -0.794504,-0.44694 -1.589057,-0.86904 -2.408454,-1.24148 -1.191805,-0.54625 -2.38366,-1.06768 -3.625153,-1.44012 -1.514575,-0.52142 -3.0292,-0.57109 -4.593463,-0.19864 -4.394862,1.06768 -7.200617,5.3632 -6.38122,9.80771 0.471783,2.45814 1.787757,4.37002 3.898235,5.71082 0.149013,0.0993 0.297976,0.17381 0.422145,0.27313 1.539419,0.94352 2.756068,2.20983 3.625103,3.82376 0.918722,1.66359 1.315974,3.47615 1.216649,5.38804 0.02479,0.27312 -0.02479,0.62074 -0.04964,0.99318" class="st1" style="fill:#f8f8f8;fill-opacity:1;stroke-width:0.24829651"/> <path id="path136" d="m 27.365474,227.39724 v 0.2483 c 0,1.41529 0.09933,2.80575 0.248288,4.19621 0.149013,1.26631 0.372458,2.50779 0.64559,3.74927 0.04969,0.22347 0.124169,0.4221 0.223495,0.62075 1.713226,3.67478 5.710787,5.6115 9.658709,4.71763 3.004407,-0.6704 5.462548,-3.00439 6.306739,-5.98395 0.223445,-0.81938 0.297927,-1.66358 0.347614,-2.5078 0.02479,-0.57107 0.07448,-1.11733 0.173807,-1.66358 0.64559,-3.37683 2.905081,-6.15775 6.05845,-7.47372 0.173807,-0.0745 0.347614,-0.14898 0.546216,-0.19864 0.02479,0 0.07448,-0.0248 0.04969,-0.0497 -0.496627,-0.17381 -3.47614,-0.47176 -5.263897,-0.49659 -3.823754,-0.0745 -7.597869,0.4221 -11.27266,1.53944 -2.70643,0.76971 -5.263897,1.88705 -7.722038,3.30234" class="st2" style="fill:#e5e5e5;fill-opacity:1;stroke-width:0.24829651"/> <ellipse style="opacity:1;fill:#b8b8b8;fill-opacity:1;stroke:none;stroke-width:0.06719353;stroke-miterlimit:4;stroke-dasharray:none;stroke-opacity:1" id="circle1816-56" cx="211.81058" cy="240.75195" rx="30.135538" ry="30.13554"/> <path style="fill:#ffffff;fill-opacity:1;stroke:none;stroke-width:0.04426088px;stroke-linecap:butt;stroke-linejoin:miter;stroke-opacity:1" d="m 203.60803,219.01806 -5.48158,20.88797 -3.82528,1.45231 -1.84565,6.88119 3.7884,-1.42481 -3.11195,11.90218 h 33.99936 l 2.32895,-8.89374 h -20.42637 l 2.30384,-8.59808 3.72094,-1.40235 1.78961,-6.84547 -3.71465,1.38752 4.04005,-15.33144 z" id="path2097"/> <circle style="opacity:1;fill:#2d80e0;fill-opacity:1;stroke:none;stroke-width:0.06719353;stroke-miterlimit:4;stroke-dasharray:none;stroke-opacity:1" id="circle1816-7" cx="294.91446" cy="240.75195" r="30.13554"/> <path style="fill:#ffffff;fill-opacity:1;stroke:none;stroke-width:0.69831783" class="st0" d="m 311.60426,230.76601 c -1.81563,0 -3.35193,1.46647 -3.35193,3.35192 0,2.65362 -0.41899,3.35193 -3.35192,3.35193 h -0.27933 c -1.67596,0.13967 -3.00277,1.5363 -3.00277,3.28209 v 0.0698 c 0,2.58378 -0.48882,3.21227 -3.35192,3.21227 -0.13967,0 -0.27933,0 -0.34916,0.0698 -1.67597,0.2095 -3.00277,1.60613 -3.00277,3.2821 0,1.81562 1.46647,3.35192 3.35193,3.35192 1.74579,0 3.21226,-1.39664 3.28209,-3.0726 v -0.27932 c 0,-2.37429 0.76815,-3.2821 3.28209,-3.35193 h 0.0698 c 1.74579,0 3.21226,-1.39664 3.28209,-3.14243 v -0.2095 c 0,-2.44411 0.76815,-3.35192 3.35193,-3.35192 1.81562,0 3.35192,-1.46647 3.35192,-3.35193 0,-1.74579 -1.46647,-3.21226 -3.28209,-3.21226 z m -19.69256,6.70385 h -0.27933 c -2.93294,0 -3.35193,-0.69831 -3.35193,-3.35193 0,-1.81562 -1.46647,-3.35192 -3.35192,-3.35192 -1.81563,0 -3.35193,1.46647 -3.35193,3.35192 0,2.65362 -0.41899,3.2821 -3.35192,3.2821 h -0.27933 c -1.67597,0.13966 -3.00277,1.5363 -3.00277,3.28209 0,1.81563 1.46647,3.35193 3.35193,3.35193 1.74579,0 3.21225,-1.39664 3.28209,-3.0726 v -0.2095 c 0,-2.44411 0.76815,-3.35192 3.35193,-3.35192 2.58377,0 3.35192,0.90781 3.35192,3.28209 0,1.81563 1.46647,3.35193 3.35193,3.35193 1.88546,0 3.35192,-1.46647 3.35192,-3.35193 -0.0698,-1.67596 -1.39663,-3.07259 -3.07259,-3.21226 z" id="path901"/> <circle r="30.13554" cy="240.75195" cx="378.01831" id="circle2153" style="opacity:1;fill:#5798f4;fill-opacity:1;stroke:none;stroke-width:0.06719353;stroke-miterlimit:4;stroke-dasharray:none;stroke-opacity:1"/> <g transform="matrix(1.5495746,0,0,1.5495747,-631.83364,784.97783)" id="g2247" style="fill:#ffffff;fill-opacity:1"> <circle r="1.9823358" cy="-351.18732" cx="647.31036" id="path2157" style="opacity:1;fill:#ffffff;fill-opacity:1;stroke:none;stroke-width:0.51183695;stroke-miterlimit:4;stroke-dasharray:none;stroke-opacity:1"/> <circle style="opacity:1;fill:#ffffff;fill-opacity:1;stroke:none;stroke-width:0.51183695;stroke-miterlimit:4;stroke-dasharray:none;stroke-opacity:1" id="circle2159" cx="656.08014" cy="-351.18732" r="1.9823358"/> <circle r="1.9823358" cy="-354.8414" cx="649.46625" id="circle2161" style="opacity:1;fill:#ffffff;fill-opacity:1;stroke:none;stroke-width:0.51183695;stroke-miterlimit:4;stroke-dasharray:none;stroke-opacity:1"/> <circle style="opacity:1;fill:#ffffff;fill-opacity:1;stroke:none;stroke-width:0.51183695;stroke-miterlimit:4;stroke-dasharray:none;stroke-opacity:1" id="circle2163" cx="653.92419" cy="-354.91449" r="1.9823358"/> <circle r="1.9823358" cy="-347.35056" cx="649.53931" id="circle2165" style="opacity:1;fill:#ffffff;fill-opacity:1;stroke:none;stroke-width:0.51183695;stroke-miterlimit:4;stroke-dasharray:none;stroke-opacity:1"/> <circle style="opacity:1;fill:#ffffff;fill-opacity:1;stroke:none;stroke-width:0.51183695;stroke-miterlimit:4;stroke-dasharray:none;stroke-opacity:1" id="circle2167" cx="653.99725" cy="-347.42365" r="1.9823358"/> <circle r="1.1942703" cy="-343.75479" cx="651.61108" id="circle2169" style="opacity:1;fill:#ffffff;fill-opacity:1;stroke:none;stroke-width:0.30835927;stroke-miterlimit:4;stroke-dasharray:none;stroke-opacity:1"/> <circle style="opacity:1;fill:#ffffff;fill-opacity:1;stroke:none;stroke-width:0.27833796;stroke-miterlimit:4;stroke-dasharray:none;stroke-opacity:1" id="circle2171" cx="656.55908" cy="-342.88922" r="1.0779983"/> <circle r="1.0277548" cy="-342.86484" cx="646.84247" id="circle2173" style="opacity:1;fill:#ffffff;fill-opacity:1;stroke:none;stroke-width:0.26536512;stroke-miterlimit:4;stroke-dasharray:none;stroke-opacity:1"/> <circle style="opacity:1;fill:#ffffff;fill-opacity:1;stroke:none;stroke-width:0.30664232;stroke-miterlimit:4;stroke-dasharray:none;stroke-opacity:1" id="circle2175" cx="645.14795" cy="-347.55576" r="1.1876205"/> <circle r="1.1876205" cy="-347.44614" cx="658.26605" id="circle2177" style="opacity:1;fill:#ffffff;fill-opacity:1;stroke:none;stroke-width:0.30664232;stroke-miterlimit:4;stroke-dasharray:none;stroke-opacity:1"/> <circle style="opacity:1;fill:#ffffff;fill-opacity:1;stroke:none;stroke-width:0.30664232;stroke-miterlimit:4;stroke-dasharray:none;stroke-opacity:1" id="circle2179" cx="658.17468" cy="-354.90045" r="1.1876205"/> <circle r="1.1876205" cy="-358.59106" cx="651.6156" id="circle2181" style="opacity:1;fill:#ffffff;fill-opacity:1;stroke:none;stroke-width:0.30664232;stroke-miterlimit:4;stroke-dasharray:none;stroke-opacity:1"/> <circle style="opacity:1;fill:#ffffff;fill-opacity:1;stroke:none;stroke-width:0.32079449;stroke-miterlimit:4;stroke-dasharray:none;stroke-opacity:1" id="circle2183" cx="645.2027" cy="-354.95526" r="1.2424316"/> <circle r="0.98664635" cy="-351.19156" cx="641.98712" id="circle2185" style="opacity:1;fill:#ffffff;fill-opacity:1;stroke:none;stroke-width:0.25475103;stroke-miterlimit:4;stroke-dasharray:none;stroke-opacity:1"/> <circle style="opacity:1;fill:#ffffff;fill-opacity:1;stroke:none;stroke-width:0.18399015;stroke-miterlimit:4;stroke-dasharray:none;stroke-opacity:1" id="circle2187" cx="638.46094" cy="-351.20984" r="0.71259069"/> <circle style="opacity:1;fill:#ffffff;fill-opacity:1;stroke:none;stroke-width:0.22172928;stroke-miterlimit:4;stroke-dasharray:none;stroke-opacity:1" id="circle2189" cx="641.34766" cy="-345.25369" r="0.85875368"/> <circle r="0.84915942" cy="-357.06595" cx="641.28326" id="circle2191" style="opacity:1;fill:#ffffff;fill-opacity:1;stroke:none;stroke-width:0.21925206;stroke-miterlimit:4;stroke-dasharray:none;stroke-opacity:1"/> <circle style="opacity:1;fill:#ffffff;fill-opacity:1;stroke:none;stroke-width:0.2689032;stroke-miterlimit:4;stroke-dasharray:none;stroke-opacity:1" id="circle2193" cx="646.79224" cy="-359.54114" r="1.0414575"/> <circle r="1.0414575" cy="-359.54114" cx="656.47552" id="circle2195" style="opacity:1;fill:#ffffff;fill-opacity:1;stroke:none;stroke-width:0.2689032;stroke-miterlimit:4;stroke-dasharray:none;stroke-opacity:1"/> <circle style="opacity:1;fill:#ffffff;fill-opacity:1;stroke:none;stroke-width:0.2689032;stroke-miterlimit:4;stroke-dasharray:none;stroke-opacity:1" id="circle2197" cx="661.42676" cy="-351.22812" r="1.0414575"/> <circle style="opacity:1;fill:#ffffff;fill-opacity:1;stroke:none;stroke-width:0.17455536;stroke-miterlimit:4;stroke-dasharray:none;stroke-opacity:1" id="circle2199" cx="645.00177" cy="-362.46442" r="0.67604989"/> <circle r="0.67604989" cy="-362.42789" cx="658.26605" id="circle2201" style="opacity:1;fill:#ffffff;fill-opacity:1;stroke:none;stroke-width:0.17455536;stroke-miterlimit:4;stroke-dasharray:none;stroke-opacity:1"/> <circle style="opacity:1;fill:#ffffff;fill-opacity:1;stroke:none;stroke-width:0.22172928;stroke-miterlimit:4;stroke-dasharray:none;stroke-opacity:1" id="circle2203" cx="651.65216" cy="-363.04904" r="0.85875368"/> <circle r="0.80394256" cy="-357.07462" cx="662.15765" id="circle2205" style="opacity:1;fill:#ffffff;fill-opacity:1;stroke:none;stroke-width:0.20757711;stroke-miterlimit:4;stroke-dasharray:none;stroke-opacity:1"/> <circle style="opacity:1;fill:#ffffff;fill-opacity:1;stroke:none;stroke-width:0.20757711;stroke-miterlimit:4;stroke-dasharray:none;stroke-opacity:1" id="circle2207" cx="662.08459" cy="-345.23541" r="0.80394256"/> <circle r="0.67475146" cy="-339.95657" cx="645.11273" id="circle2209" style="opacity:1;fill:#ffffff;fill-opacity:1;stroke:none;stroke-width:0.17422011;stroke-miterlimit:4;stroke-dasharray:none;stroke-opacity:1"/> <circle style="opacity:1;fill:#ffffff;fill-opacity:1;stroke:none;stroke-width:0.21583255;stroke-miterlimit:4;stroke-dasharray:none;stroke-opacity:1" id="circle2211" cx="651.64764" cy="-339.34778" r="0.83591574"/> <circle r="0.70058972" cy="-339.90121" cx="658.37769" id="circle2213" style="opacity:1;fill:#ffffff;fill-opacity:1;stroke:none;stroke-width:0.18089151;stroke-miterlimit:4;stroke-dasharray:none;stroke-opacity:1"/> <circle style="opacity:1;fill:#ffffff;fill-opacity:1;stroke:none;stroke-width:0.18089151;stroke-miterlimit:4;stroke-dasharray:none;stroke-opacity:1" id="circle2215" cx="664.94348" cy="-351.1972" r="0.70058972"/> </g> <g id="g1526" transform="translate(-96.312766,-3.8157253)"> <g id="g1535"> <circle transform="matrix(0.49588293,0,0,0.49588293,-158.25911,377.73549)" r="60.771481" cy="-268.54688" cx="1443.2721" id="circle1511" style="opacity:1;fill:#23bc54;fill-opacity:1;stroke:none;stroke-width:0.13550282;stroke-miterlimit:4;stroke-dasharray:none;stroke-opacity:1"/> <path d="m 562.8974,250.87265 h 6.80109 v 5.96223 h -20.42131 l 25.38683,-25.38683 c 0.82984,-0.82984 1.07789,-2.07911 0.6314,-3.16602 -0.451,-1.08691 -1.51085,-1.79498 -2.68345,-1.79498 h -30.35235 c -1.60556,0 -2.90444,1.29888 -2.90444,2.90444 v 8.86668 0 12.60997 l 12.60998,-12.60997 h -6.79658 v -5.95772 h 20.42581 l -25.38682,25.38683 c -0.82984,0.82984 -1.07789,2.07911 -0.6314,3.16601 0.451,1.08692 1.51085,1.79499 2.68345,1.79499 h 30.34332 c 1.60557,0 2.90444,-1.29888 2.90444,-2.90444 v -8.87119 0 -12.60997 z" class="st0" id="XMLID_279_" style="fill:#ffffff;fill-opacity:1;stroke-width:0.04510006"/> </g> </g> </g> <style id="style130" type="text/css"> .st0{fill:#05CCBB;} .st1{fill:#3BB8E9;} .st2{fill:#F5A81C;} .st3{fill:#211F33;} </style> <style id="style897">.st0{fill:#4a90e2}.st1{fill:#000034}</style> <style id="style2" type="text/css"> .st0{fill:url(#XMLID_3_);} </style> <style id="style1513" type="text/css"> .st0{fill:#3FAD54;} </style> </svg>