<?xml version="1.0" encoding="utf-8"?>
<!-- Generator: Adobe Illustrator 16.0.4, SVG Export Plug-In . SVG Version: 6.00 Build 0)  -->
<!DOCTYPE svg PUBLIC "-//W3C//DTD SVG 1.1//EN" "http://www.w3.org/Graphics/SVG/1.1/DTD/svg11.dtd">
<svg version="1.1" id="Layer_1" xmlns="http://www.w3.org/2000/svg" xmlns:xlink="http://www.w3.org/1999/xlink" x="0px" y="0px"
	 width="150px" height="150px" viewBox="-74.635 137.8 150 150" enable-background="new -74.635 137.8 150 150"
	 xml:space="preserve">
<circle fill="none" cx="0.365" cy="212.8" r="75"/>
<circle fill="#002A5B" cx="0.365" cy="212.8" r="67.763"/>
<path fill="#47B5F1" d="M0.366,212.841l1.704-67.782c-0.567-0.014-1.135-0.021-1.705-0.021v67.799l-0.049-0.067L0.366,212.841z"/>
<circle fill="#000E1E" cx="0.365" cy="212.8" r="39.383"/>
<g>
	<path fill="#47B5F1" d="M-16.778,213.466c0,3.249-0.532,5.654-1.598,7.215c-1.064,1.562-2.704,2.342-4.918,2.342
		c-2.146,0-3.766-0.806-4.855-2.418c-1.09-1.611-1.635-3.991-1.635-7.139c0-3.283,0.53-5.703,1.591-7.261
		c1.061-1.557,2.693-2.335,4.899-2.335c2.146,0,3.769,0.814,4.867,2.443C-17.327,207.943-16.778,210.326-16.778,213.466z
		 M-25.877,213.466c0,2.282,0.197,3.918,0.592,4.905c0.394,0.988,1.058,1.482,1.991,1.482c0.916,0,1.578-0.5,1.985-1.501
		s0.61-2.63,0.61-4.887c0-2.282-0.205-3.922-0.617-4.919c-0.411-0.997-1.07-1.495-1.979-1.495c-0.925,0-1.587,0.498-1.985,1.495
		S-25.877,211.184-25.877,213.466z"/>
	<path fill="#47B5F1" d="M-14.559,220.948c0-0.713,0.191-1.252,0.572-1.616c0.383-0.365,0.938-0.547,1.668-0.547
		c0.704,0,1.248,0.187,1.636,0.56c0.386,0.373,0.578,0.908,0.578,1.604c0,0.67-0.195,1.198-0.585,1.584
		c-0.391,0.386-0.934,0.579-1.629,0.579c-0.713,0-1.265-0.188-1.654-0.566C-14.363,222.168-14.559,221.636-14.559,220.948z"/>
	<path fill="#47B5F1" d="M5.986,218.912H3.747v3.855h-3.844v-3.855h-7.94v-2.735l8.157-12.014h3.627v11.695h2.239V218.912z
		 M-0.097,215.859v-3.156c0-0.526,0.021-1.29,0.063-2.291c0.043-1.001,0.077-1.582,0.103-1.743h-0.103
		c-0.313,0.695-0.69,1.374-1.132,2.036l-3.411,5.154H-0.097z"/>
	<path fill="#47B5F1" d="M15.709,209.712c0,1.951-0.378,3.416-1.133,4.396c-0.755,0.979-1.862,1.47-3.321,1.47
		c-1.4,0-2.481-0.502-3.245-1.508s-1.146-2.458-1.146-4.358c0-3.878,1.463-5.816,4.391-5.816c1.434,0,2.534,0.503,3.302,1.509
		C15.325,206.408,15.709,207.846,15.709,209.712z M10.071,209.737c0,1.078,0.096,1.882,0.287,2.412
		c0.189,0.53,0.497,0.795,0.922,0.795c0.814,0,1.222-1.069,1.222-3.207c0-2.121-0.407-3.181-1.222-3.181
		c-0.425,0-0.732,0.26-0.922,0.783C10.167,207.861,10.071,208.66,10.071,209.737z M24.464,204.163l-10.32,18.604H11.09
		l10.319-18.604H24.464z M28.739,217.144c0,1.942-0.377,3.403-1.132,4.383c-0.755,0.981-1.862,1.471-3.321,1.471
		c-1.4,0-2.481-0.503-3.245-1.508s-1.146-2.454-1.146-4.346c0-3.878,1.463-5.816,4.391-5.816c1.434,0,2.534,0.503,3.302,1.509
		C28.356,213.841,28.739,215.278,28.739,217.144z M23.103,217.168c0,1.078,0.096,1.882,0.287,2.412
		c0.189,0.53,0.497,0.795,0.922,0.795c0.814,0,1.222-1.068,1.222-3.207c0-2.12-0.407-3.181-1.222-3.181
		c-0.425,0-0.732,0.261-0.922,0.783C23.198,215.292,23.103,216.092,23.103,217.168z"/>
</g>
</svg>
